<?xml version="1.0" encoding="utf-8"?>
<?xml-stylesheet type="text/xsl" href="rss1.xsl"?>
<rss version="2.0" xmlns:atom="http://www.w3.org/2005/Atom" xmlns:content="http://purl.org/rss/1.0/modules/content/" xmlns:dc="http://purl.org/dc/elements/1.1/" xmlns:media="http://search.yahoo.com/mrss/">
<channel>
 <title>Getty</title>
 <link>http://www.gettyimg.com/</link>
 <atom:link href="http://www.gettyimg.com/" rel="self" type="application/rss+xml" />

 
                <item>
                <title><![CDATA[【Albums (lossless)】FLAC - Morgan Wallen - One Thing At A Time [Qobuz Lossless Music 16bit/44.1kHz]]]></title>
                <link><![CDATA[https://sharemania.us/threads/morgan-wallen-one-thing-at-a-time-qobuz-lossless-music-16bit-44-1khz.241142/]]></link>
                <description><![CDATA[<article>
<blockquote class="messageText SelectQuoteContainer ugc baseHtml">
<b>Morgan Wallen - One Thing At A Time [Qobuz Lossless Music 16bit/44.1kHz]</b><br>
<br>
<img src="https://imgur.com/wawCM74.jpg" class="bbCodeImage LbImage" alt="[​IMG]" data-url="https://imgur.com/wawCM74.jpg" style=""><br>
<br>
<b>Tracks:</b><br>
01 - Born With A Beer In My Hand.flac<br>
02 - Last Night.flac<br>
03 - Everything I Love.flac<br>
04 - Man Made A Bar.flac<br>
05 - Devil Don’t Know.flac<br>
06 - One Thing At A Time.flac<br>
07 - ’98 Braves.flac<br>
08 - Ain’t That Some.flac<br>
09 - I Wrote The Book.flac<br>
10 - Tennessee Numbers.flac<br>
11 - Hope That’s True.flac<br>
12 - Whiskey Friends.flac<br>
13 - Sunrise.flac<br>
14 - Keith Whitley.flac<br>
15 - In The Bible.flac<br>
16 - You Proof.flac<br>
17 - Thought You Should Know.flac<br>
18 - F150-50.flac<br>
19 - Neon Star (Country Boy Lullaby).flac<br>
20 - I Deserve A Drink.flac<br>
21 - Wine Into Water.flac<br>
22 - Me + All Your Reasons.flac<br>
23 - Tennessee Fan.flac<br>
24 - Money On Me.flac<br>
25 - Thinkin’ Bout Me.flac<br>
26 - Single Than She Was.flac<br>
27 - Days That End In Why.flac<br>
28 - Last Drive Down Main.flac<br>
29 - Me To Me.flac<br>
30 - Don't Think Jesus.flac<br>
31 - 180 (Lifestyle).flac<br>
32 - Had It.flac<br>
33 - Cowgirls.flac<br>
34 - Good Girl Gone Missin’.flac<br>
35 - Outlook.flac<br>
36 - Dying Man.flac<br>
<br>
<b>Quality: Qobuz 16bit/44.1kHz<br>
Size: 762MB</b><br>
<br>
<div class="bbCodeBlock bbCodeVfcHH HiddenContent">
<div class="attribution type">Hidden Content:</div>
<blockquote>You must reply before you can see the hidden data contained here.</blockquote>
</div><b>How to download:<br>
<br>
1. Open the link and click on "I am Human"<br>
2. A new tab will open. Repeat the same thing.<br>
3. In the next page, click on "Get Link" to reach the destination page.<br>
4. Ignore and close any pop-ups if it comes up.<br>
5. Enjoy!! Let me know if any issues come up.<br>
<br>
PS: For those suggesting to post direct links, these albums and videos I provide take my time and money. So the least you can do is help me by not whining to see 1 or 2 ad/popups if you are getting these for free. Ultimately both of us will walk out happy and I will be motivated to post more and even accept requests. Hope you understand<br>
<img src="styles/default/xenforo/smilies/big_smile-48.png" class="mceSmilie" alt=":)" title="Smile    :)"></b>
<div class="messageTextEndMarker">&nbsp;</div>
</blockquote>
</article>]]></description>
                <author><![CDATA[abby0511]]></author>
                </item>

                
                <item>
                <title><![CDATA[【PRORES HD】Henry Moodie - Pick Up The Phone]]></title>
                <link><![CDATA[https://sharemania.us/threads/henry-moodie-pick-up-the-phone.241143/]]></link>
                <description><![CDATA[<article>
<blockquote class="messageText SelectQuoteContainer ugc baseHtml">
<div style="text-align: center"><img src="https://i.ibb.co/4s3Ydpk/20240331180056.gif" class="bbCodeImage LbImage" alt="[​IMG]" data-url="https://i.ibb.co/4s3Ydpk/20240331180056.gif" style=""><br>
​</div>
<div class="ToggleTriggerAnchor bbCodeSpoilerContainer">
<button type="button" class="button bbCodeSpoilerButton ToggleTrigger Tooltip JsOnly" data-target="> .SpoilerTarget"><span>Spoiler: <span class="SpoilerTitle">ProRes</span></span></button>
<div class="SpoilerTarget bbCodeSpoilerText">
<div class="bbCodeBlock bbCodeCode">
<div class="type">Code:</div>
<pre>General
Complete name                            : Henry Moodie - 'Pick Up The Phone.mp4
Format                                   : MPEG-4
Format profile                           : QuickTime
Codec ID                                 : qt   0000.02 (qt  )
File size                                : 3.56 GiB
Duration                                 : 2 min 44 s
Overall bit rate mode                    : Variable
Overall bit rate                         : 186 Mb/s
Frame rate                               : 25.000 FPS
Encoded date                             : 2023-07-12 17:16:05 UTC
Tagged date                              : 2023-07-12 17:16:05 UTC
Writing application                      : Blackmagic Design DaVinci Resolve Studio
Writing library                          : Apple QuickTime

Video
ID                                       : 1
Format                                   : ProRes
Format version                           : Version 0
Format profile                           : 422 HQ
Codec ID                                 : apch
Duration                                 : 2 min 44 s
Bit rate mode                            : Variable
Bit rate                                 : 185 Mb/s
Width                                    : 1 920 pixels
Height                                   : 1 080 pixels
Display aspect ratio                     : 16:9
Frame rate mode                          : Constant
Frame rate                               : 25.000 FPS
Color space                              : YUV
Chroma subsampling                       : 4:2:2
Scan type                                : Progressive
Bits/(Pixel*Frame)                       : 3.561
Stream size                              : 3.53 GiB (99%)
Writing library                          : Apple
Encoded date                             : 2023-07-12 17:16:05 UTC
Tagged date                              : 2023-07-12 17:16:05 UTC
Color primaries                          : BT.709
Transfer characteristics                 : BT.709
Matrix coefficients                      : BT.709

Audio
ID                                       : 2
Format                                   : PCM
Format settings                          : Little / Signed
Codec ID                                 : lpcm
Duration                                 : 2 min 44 s
Bit rate mode                            : Constant
Bit rate                                 : 1 536 kb/s
Channel(s)                               : 2 channels
Channel layout                           : L R
Sampling rate                            : 48.0 kHz
Bit depth                                : 16 bits
Stream size                              : 30.0 MiB (1%)
Default                                  : Yes
Alternate group                          : 1
Encoded date                             : 2023-07-12 17:16:05 UTC
Tagged date                              : 2023-07-12 17:16:05 UTC

Other
ID                                       : 3
Type                                     : Time code
Format                                   : QuickTime TC
Duration                                 : 2 min 44 s
Frame rate                               : 25.000 FPS
Time code of first frame                 : 01:00:00:00
Time code of last frame                  : 01:02:44:01
Time code, stripped                      : Yes
Language                                 : English
Default                                  : No
Encoded date                             : 2023-07-12 17:16:05 UTC
Tagged date                              : 2023-07-12 17:16:05 UTC

</pre>
</div><div style="text-align: center">​</div></div>
</div><div style="text-align: center"><br>
<div class="bbCodeBlock bbCodeVfcHH HiddenContent">
<div class="attribution type">Hidden Content:</div>
<blockquote>You must reply before you can see the hidden data contained here.</blockquote>
</div></div>
<div class="messageTextEndMarker">&nbsp;</div>
</blockquote>
</article>]]></description>
                <author><![CDATA[fstambuk]]></author>
                </item>

                </channel></rss>